
<svg id="Layer_1" data-name="Layer 1" xmlns="http://www.w3.org/2000/svg" xmlns:xlink="http://www.w3.org/1999/xlink" viewBox="0 0 1922 916.5"><defs><style>.cls-1{fill:none;}.cls-2{fill:url(#linear-gradient);}.cls-3{clip-path:url(#clip-path);}.cls-4,.cls-5{fill:#0d40ce;isolation:isolate;}.cls-4{opacity:0.31;}.cls-5{opacity:0.37;}.cls-6,.cls-7,.cls-8{fill:#2e9bb0;}.cls-6{opacity:0.46;}.cls-7{opacity:0.65;}.cls-8{opacity:0.8;}</style><linearGradient id="linear-gradient" x1="2.08" y1="0.36" x2="2.95" y2="0.93" gradientTransform="translate(-3842.09 -162) scale(1922.04 916.46)" gradientUnits="userSpaceOnUse"><stop offset="0" stop-color="#1547ff"/><stop offset="1" stop-color="#2e9bb0"/></linearGradient><clipPath id="clip-path"><path class="cls-1" d="M0,703.1S172,871.8,225.4,911.9c8.5,5.8,20.1,4.4,23,4.4H1922V0H0Z"/></clipPath></defs><path class="cls-2" d="M0,703.1S172,871.8,225.4,911.9c8.5,5.8,20.1,4.4,23,4.4H1922V0H0Z"/><g class="cls-3"><path class="cls-4" d="M-179.5,566.9-53.7,436.8,443.1,917,317.3,1047.1Z"/><path class="cls-5" d="M349.59,727.44h0a21.49,21.49,0,0,1,30.4-.5l465.9,450.4a21.49,21.49,0,0,1,.5,30.4h0a21.49,21.49,0,0,1-30.4.5l-465.9-450.4A21.4,21.4,0,0,1,349.59,727.44Z"/><path class="cls-5" d="M313.59,237.44h0a21.49,21.49,0,0,1,30.4-.5L532.29,419a21.49,21.49,0,0,1,.5,30.4h0a21.49,21.49,0,0,1-30.4.5l-188.3-182.1A21.4,21.4,0,0,1,313.59,237.44Z"/><path class="cls-5" d="M538.59,525.44h0a21.49,21.49,0,0,1,30.4-.5L757.29,707a21.49,21.49,0,0,1,.5,30.4h0a21.49,21.49,0,0,1-30.4.5l-188.3-182.1A21.4,21.4,0,0,1,538.59,525.44Z"/><path class="cls-5" d="M-58.41,224.44h0a21.49,21.49,0,0,1,30.4-.5L160.29,406a21.49,21.49,0,0,1,.5,30.4h0a21.49,21.49,0,0,1-30.4.5l-188.3-182.1A21.4,21.4,0,0,1-58.41,224.44Z"/><path class="cls-5" d="M957.59,846.44h0a21.49,21.49,0,0,1,30.4-.5l157.5,152.2a21.49,21.49,0,0,1,.5,30.4h0a21.49,21.49,0,0,1-30.4.5l-157.5-152.2A21.4,21.4,0,0,1,957.59,846.44Z"/></g><circle class="cls-6" cx="1890.5" cy="454.89" r="408.61"/><circle class="cls-7" cx="1890.5" cy="446.89" r="345.35"/><circle class="cls-8" cx="1889.76" cy="444.89" r="276.64"/></svg>
