
<svg id="Layer_1" data-name="Layer 1" xmlns="http://www.w3.org/2000/svg" viewBox="0 0 135.18 105.91"><rect x="5.62" y="4.73" width="4.68" height="4.68" rx="0.5" transform="translate(-6.08 4.45) rotate(-45)"/><rect x="19.46" y="4.51" width="4.68" height="4.68" rx="0.5" transform="translate(-1.87 14.17) rotate(-45)"/><rect x="33.3" y="4.3" width="4.68" height="4.68" rx="0.5" transform="translate(2.33 23.89) rotate(-45)"/><rect x="48.13" y="4.09" width="4.68" height="4.68" rx="0.5" transform="translate(6.83 34.32) rotate(-45)"/><rect x="62.33" y="4.23" width="4.68" height="4.68" rx="0.5" transform="translate(10.89 44.4) rotate(-45)"/><rect x="76.81" y="4.66" width="4.68" height="4.68" rx="0.5" transform="translate(14.82 54.76) rotate(-45)"/><rect x="90.64" y="4.44" width="4.68" height="4.68" rx="0.5" transform="translate(19.03 64.48) rotate(-45)"/><rect x="104.48" y="4.23" width="4.68" height="4.68" rx="0.5" transform="translate(23.23 74.2) rotate(-45)"/><rect x="119.32" y="4.01" width="4.68" height="4.68" rx="0.5" transform="translate(27.73 84.63) rotate(-45)"/><rect x="133.15" y="4.23" width="4.68" height="4.68" rx="0.5" transform="translate(31.63 94.48) rotate(-45)"/><rect x="5.05" y="17.87" width="4.68" height="4.68" rx="0.5" transform="translate(-15.54 7.89) rotate(-45)"/><rect x="18.88" y="17.66" width="4.68" height="4.68" rx="0.5" transform="translate(-11.33 17.61) rotate(-45)"/><rect x="32.72" y="17.44" width="4.68" height="4.68" rx="0.5" transform="translate(-7.13 27.33) rotate(-45)"/><rect x="47.56" y="17.23" width="4.68" height="4.68" rx="0.5" transform="translate(-2.63 37.76) rotate(-45)"/><rect x="61.75" y="17.37" width="4.68" height="4.68" rx="0.5" transform="translate(1.42 47.84) rotate(-45)"/><rect x="76.23" y="17.8" width="4.68" height="4.68" rx="0.5" transform="translate(5.36 58.2) rotate(-45)"/><rect x="90.07" y="17.59" width="4.68" height="4.68" rx="0.5" transform="translate(9.57 67.92) rotate(-45)"/><rect x="103.9" y="17.37" width="4.68" height="4.68" rx="0.5" transform="translate(13.77 77.64) rotate(-45)"/><rect x="118.74" y="17.16" width="4.68" height="4.68" rx="0.5" transform="translate(18.27 88.07) rotate(-45)"/><rect x="132.58" y="17.37" width="4.68" height="4.68" rx="0.5" transform="translate(22.17 97.92) rotate(-45)"/><rect x="5.47" y="32.01" width="4.68" height="4.68" rx="0.5" transform="translate(-25.41 12.33) rotate(-45)"/><rect x="19.31" y="31.8" width="4.68" height="4.68" rx="0.5" transform="translate(-21.21 22.05) rotate(-45)"/><rect x="33.15" y="31.59" width="4.68" height="4.68" rx="0.5" transform="translate(-17 31.77) rotate(-45)"/><rect x="47.98" y="31.37" width="4.68" height="4.68" rx="0.5" transform="translate(-12.51 42.2) rotate(-45)"/><rect x="62.18" y="31.51" width="4.68" height="4.68" rx="0.5" transform="translate(-8.45 52.28) rotate(-45)"/><rect x="76.66" y="31.94" width="4.68" height="4.68" rx="0.5" transform="translate(-4.51 62.65) rotate(-45)"/><rect x="90.49" y="31.73" width="4.68" height="4.68" rx="0.5" transform="translate(-0.31 72.37) rotate(-45)"/><rect x="104.33" y="31.51" width="4.68" height="4.68" rx="0.5" transform="translate(3.89 82.09) rotate(-45)"/><rect x="119.17" y="31.3" width="4.68" height="4.68" rx="0.5" transform="translate(8.39 92.52) rotate(-45)"/><rect x="133" y="31.51" width="4.68" height="4.68" rx="0.5" transform="translate(12.29 102.36) rotate(-45)"/><rect x="4.9" y="47.16" width="4.68" height="4.68" rx="0.5" transform="translate(-36.29 16.36) rotate(-45)"/><rect x="18.73" y="46.94" width="4.68" height="4.68" rx="0.5" transform="translate(-32.08 26.08) rotate(-45)"/><rect x="32.57" y="46.73" width="4.68" height="4.68" rx="0.5" transform="translate(-27.88 35.8) rotate(-45)"/><rect x="47.41" y="46.51" width="4.68" height="4.68" rx="0.5" transform="translate(-23.38 46.23) rotate(-45)"/><rect x="61.6" y="46.66" width="4.68" height="4.68" rx="0.5" transform="translate(-19.33 56.31) rotate(-45)"/><rect x="76.08" y="47.09" width="4.68" height="4.68" rx="0.5" transform="translate(-15.39 66.67) rotate(-45)"/><rect x="89.92" y="46.87" width="4.68" height="4.68" rx="0.5" transform="translate(-11.19 76.4) rotate(-45)"/><rect x="103.75" y="46.66" width="4.68" height="4.68" rx="0.5" transform="translate(-6.98 86.12) rotate(-45)"/><rect x="118.59" y="46.44" width="4.68" height="4.68" rx="0.5" transform="translate(-2.48 96.54) rotate(-45)"/><rect x="132.43" y="46.66" width="4.68" height="4.68" rx="0.5" transform="translate(1.42 106.39) rotate(-45)"/><rect x="5.32" y="61.3" width="4.68" height="4.68" rx="0.5" transform="translate(-46.17 20.8) rotate(-45)"/><rect x="19.16" y="61.09" width="4.68" height="4.68" rx="0.5" transform="translate(-41.96 30.52) rotate(-45)"/><rect x="33" y="60.87" width="4.68" height="4.68" rx="0.5" transform="translate(-37.76 40.25) rotate(-45)"/><rect x="47.83" y="60.66" width="4.68" height="4.68" rx="0.5" transform="translate(-33.26 50.67) rotate(-45)"/><rect x="62.03" y="60.8" width="4.68" height="4.68" rx="0.5" transform="translate(-29.2 60.75) rotate(-45)"/><rect x="76.51" y="61.23" width="4.68" height="4.68" rx="0.5" transform="translate(-25.27 71.12) rotate(-45)"/><rect x="90.34" y="61.01" width="4.68" height="4.68" rx="0.5" transform="translate(-21.06 80.84) rotate(-45)"/><rect x="104.18" y="60.8" width="4.68" height="4.68" rx="0.5" transform="translate(-16.86 90.56) rotate(-45)"/><rect x="119.02" y="60.59" width="4.68" height="4.68" rx="0.5" transform="translate(-12.36 100.99) rotate(-45)"/><rect x="132.85" y="60.8" width="4.68" height="4.68" rx="0.5" transform="translate(-8.46 110.83) rotate(-45)"/><rect x="4.75" y="75.44" width="4.68" height="4.68" rx="0.5" transform="translate(-56.33 24.54) rotate(-45)"/><rect x="18.58" y="75.23" width="4.68" height="4.68" rx="0.5" transform="translate(-52.13 34.26) rotate(-45)"/><rect x="32.42" y="75.01" width="4.68" height="4.68" rx="0.5" transform="translate(-47.93 43.98) rotate(-45)"/><rect x="47.26" y="74.8" width="4.68" height="4.68" rx="0.5" transform="translate(-43.43 54.41) rotate(-45)"/><rect x="61.45" y="74.94" width="4.68" height="4.68" rx="0.5" transform="translate(-39.37 64.49) rotate(-45)"/><rect x="75.93" y="75.37" width="4.68" height="4.68" rx="0.5" transform="translate(-35.43 74.85) rotate(-45)"/><rect x="89.77" y="75.16" width="4.68" height="4.68" rx="0.5" transform="translate(-31.23 84.57) rotate(-45)"/><rect x="103.6" y="74.94" width="4.68" height="4.68" rx="0.5" transform="translate(-27.03 94.3) rotate(-45)"/><rect x="118.44" y="74.73" width="4.68" height="4.68" rx="0.5" transform="translate(-22.53 104.72) rotate(-45)"/><rect x="132.28" y="74.94" width="4.68" height="4.68" rx="0.5" transform="translate(-18.63 114.57) rotate(-45)"/><rect x="4.17" y="89.59" width="4.68" height="4.68" rx="0.5" transform="translate(-66.5 28.28) rotate(-45)"/><rect x="18.01" y="89.37" width="4.68" height="4.68" rx="0.5" transform="translate(-62.3 38) rotate(-45)"/><rect x="31.85" y="89.16" width="4.68" height="4.68" rx="0.5" transform="translate(-58.09 47.72) rotate(-45)"/><rect x="46.68" y="88.94" width="4.68" height="4.68" rx="0.5" transform="translate(-53.6 58.15) rotate(-45)"/><rect x="60.88" y="89.09" width="4.68" height="4.68" rx="0.5" transform="translate(-49.54 68.22) rotate(-45)"/><rect x="75.36" y="89.51" width="4.68" height="4.68" rx="0.5" transform="translate(-45.6 78.59) rotate(-45)"/><rect x="89.19" y="89.3" width="4.68" height="4.68" rx="0.5" transform="translate(-41.4 88.31) rotate(-45)"/><rect x="103.03" y="89.09" width="4.68" height="4.68" rx="0.5" transform="translate(-37.19 98.03) rotate(-45)"/><rect x="117.87" y="88.87" width="4.68" height="4.68" rx="0.5" transform="translate(-32.7 108.46) rotate(-45)"/><rect x="131.7" y="89.09" width="4.68" height="4.68" rx="0.5" transform="translate(-28.8 118.31) rotate(-45)"/><rect x="4.6" y="103.73" width="4.68" height="4.68" rx="0.5" transform="translate(-76.38 32.72) rotate(-45)"/><rect x="18.43" y="103.51" width="4.68" height="4.68" rx="0.5" transform="translate(-72.17 42.44) rotate(-45)"/><rect x="32.27" y="103.3" width="4.68" height="4.68" rx="0.5" transform="translate(-67.97 52.16) rotate(-45)"/><rect x="47.11" y="103.09" width="4.68" height="4.68" rx="0.5" transform="translate(-63.47 62.59) rotate(-45)"/><rect x="61.3" y="103.23" width="4.68" height="4.68" rx="0.5" transform="translate(-59.42 72.67) rotate(-45)"/><rect x="75.78" y="103.66" width="4.68" height="4.68" rx="0.5" transform="translate(-55.48 83.03) rotate(-45)"/><rect x="89.62" y="103.44" width="4.68" height="4.68" rx="0.5" transform="translate(-51.28 92.75) rotate(-45)"/><rect x="103.45" y="103.23" width="4.68" height="4.68" rx="0.5" transform="translate(-47.07 102.47) rotate(-45)"/><rect x="118.29" y="103.01" width="4.68" height="4.68" rx="0.5" transform="translate(-42.57 112.9) rotate(-45)"/><rect x="132.13" y="103.23" width="4.68" height="4.68" rx="0.5" transform="translate(-38.67 122.75) rotate(-45)"/></svg>