
<svg id="Layer_1" data-name="Layer 1" xmlns="http://www.w3.org/2000/svg" viewBox="0 0 275.36 92.42"><defs><style>.cls-1{fill:#fff;}</style></defs><path class="cls-1" d="M13.66,51.13a7.67,7.67,0,0,1,0-10.43C21.52,32.24,29.26,23.92,37,15.62a3,3,0,0,1,1.89-1c5-.08,10,0,15.89,0L30.42,40.8a7.52,7.52,0,0,0,0,10.24L55.25,77.85c-6,0-11.11,0-16.27,0-.51,0-1.08-.63-1.5-1.08C29.58,68.25,21.7,59.77,13.66,51.13Z"/><path class="cls-1" d="M41.4,75.18C33.69,66.91,26,58.68,18.23,50.28l-.68-.72a5.18,5.18,0,0,1,0-7l.69-.74c7.63-8.21,15.13-16.28,22.67-24.34a1.31,1.31,0,0,1,.27-.21c2.53,0,5.07-.05,7.74-.05l.12-.14H46.93c-2.69,0-5.25,0-7.8.05a1.7,1.7,0,0,0-.28.21c-7.53,8.06-15,16.13-22.66,24.34l-.69.74a5.16,5.16,0,0,0,0,7l.67.72C24,58.54,31.64,66.77,39.35,75a2.88,2.88,0,0,0,.25.26l1.93,0Z"/><path class="cls-1" d="M105,32a8.42,8.42,0,0,0-2.09-5c-3.28-3.65-6.79-7.11-10.41-10.42A7.05,7.05,0,0,0,88.3,15c-5.34-.19-10.69-.08-16-.08H63.69L52.3,27.69h0L35.12,45.22,52.29,62.74H63.93v-12H75.05V39.66H63.93V28.44c9.08-.09,19.57-.19,22.37-.19,3.92,0,4.85.93,4.86,4.93q0,12.68,0,25.36c0,4.88-.94,5.81-5.83,5.82-4.34,0-28-.13-32.47-.13L65.66,77.79c5.8,0,17.84.12,23.38,0a4.72,4.72,0,0,0,2.62-1.51c3.91-3.81,7.83-7.59,11.52-11.6A7.19,7.19,0,0,0,105,60.26C105.16,50.84,105.19,41.42,105,32ZM63.52,50.77H52.41V39.66H63.52Z"/><path class="cls-1" d="M51,54.38H61.42V53.29H51ZM54.44,31.3h.07l.76-.84,10.64-12h7.44l4.48,0,4.44,0c2.76,0,5,0,7,.11a4.57,4.57,0,0,1,2.58,1c1.73,1.58,3.34,3.12,4.88,4.64-1.85-1.87-3.82-3.77-6-5.74a4.61,4.61,0,0,0-2.57-1c-2-.07-4.28-.1-7-.1l-4.45,0-4.47,0H64.82l-10.64,12-.76.84h-.07l-14.72,15,14.72,15h0L39.73,46.31Zm38-3.26a8.84,8.84,0,0,1,1.22,5.13q0,12.69,0,25.37c0,6.29-2,8.32-8.33,8.33h-.68c-3.05,0-10.71,0-17.84-.08l-8.11,0,8,8.52h.07l-7-7.43,8.11,0c7.13,0,14.8.08,17.84.08h.68c6.3,0,8.33-2,8.34-8.33q0-12.69,0-25.37C94.76,31.18,94.06,29.18,92.45,28ZM67.13,48.26v-5h5.41v-1.1H66v6.09Z"/><path class="cls-1" d="M132.25,41.33a13,13,0,0,1-5.72-1.16,11,11,0,0,1-3.86-3.05,13.16,13.16,0,0,1-2.2-4.1,13.93,13.93,0,0,1-.7-4.28V28a14.41,14.41,0,0,1,.72-4.5,12.31,12.31,0,0,1,2.21-4,10.89,10.89,0,0,1,3.83-2.9,12.91,12.91,0,0,1,5.52-1.09,13.08,13.08,0,0,1,5.81,1.21,10.05,10.05,0,0,1,4,3.35,10.72,10.72,0,0,1,1.78,5h-4.84a5.6,5.6,0,0,0-1.15-2.82,6,6,0,0,0-2.35-1.75,8.24,8.24,0,0,0-3.21-.6,7.73,7.73,0,0,0-3.19.63,6.52,6.52,0,0,0-2.35,1.78A8,8,0,0,0,125.09,25a11.87,11.87,0,0,0,0,6.75,7.84,7.84,0,0,0,1.46,2.7,6.58,6.58,0,0,0,2.4,1.79,7.93,7.93,0,0,0,3.3.64,7.65,7.65,0,0,0,4.63-1.36,5.63,5.63,0,0,0,2.29-3.81H144a11.1,11.1,0,0,1-1.78,4.8,10.28,10.28,0,0,1-4,3.49A12.91,12.91,0,0,1,132.25,41.33Z"/><path class="cls-1" d="M156.42,41.33a11.1,11.1,0,0,1-4.27-.77A9.43,9.43,0,0,1,149,38.48a9,9,0,0,1-1.93-3,9.73,9.73,0,0,1-.65-3.52v-.71a9.56,9.56,0,0,1,.67-3.57,9,9,0,0,1,5.12-5.1,11.82,11.82,0,0,1,8.34,0,9,9,0,0,1,5.1,5.1,9.56,9.56,0,0,1,.67,3.57V32a9.73,9.73,0,0,1-.65,3.52,9,9,0,0,1-1.93,3,9.47,9.47,0,0,1-3.13,2.08A11,11,0,0,1,156.42,41.33Zm0-4a5.18,5.18,0,0,0,2.85-.76,5,5,0,0,0,1.8-2,7.2,7.2,0,0,0,0-5.89,5,5,0,0,0-1.81-2.06,5.17,5.17,0,0,0-2.82-.76,5.24,5.24,0,0,0-2.84.76,5,5,0,0,0-1.83,2.06,7.2,7.2,0,0,0,0,5.89,5,5,0,0,0,1.8,2A5.24,5.24,0,0,0,156.42,37.34Z"/><path class="cls-1" d="M170.45,40.69V22.47h3.69v7.82h-.34a13.16,13.16,0,0,1,.71-4.62,5.78,5.78,0,0,1,2.09-2.82,6.07,6.07,0,0,1,3.48-1h.2a6.07,6.07,0,0,1,3.5,1,5.72,5.72,0,0,1,2.09,2.82,13.69,13.69,0,0,1,.68,4.62h-1.17a12.92,12.92,0,0,1,.72-4.62,5.93,5.93,0,0,1,2.11-2.82,6.07,6.07,0,0,1,3.48-1h.2a6.18,6.18,0,0,1,3.52,1,5.92,5.92,0,0,1,2.14,2.82,12.92,12.92,0,0,1,.72,4.62v10.4H193.6V29.89a4,4,0,0,0-.89-2.77,3.06,3.06,0,0,0-2.46-1,3.33,3.33,0,0,0-2.59,1.06,4.07,4.07,0,0,0-1,2.87V40.69H182V29.89a4,4,0,0,0-.89-2.77,3.06,3.06,0,0,0-2.46-1,3.33,3.33,0,0,0-2.59,1.06,4.07,4.07,0,0,0-1,2.87V40.69Z"/><path class="cls-1" d="M201.42,26.19V22.77h11.71v3.42Zm2.28,14.5V22.07a5.86,5.86,0,0,1,1.73-4.64,7.61,7.61,0,0,1,5.12-1.51h2.28v3.6h-2.62a2.12,2.12,0,0,0-1.59.57,2.15,2.15,0,0,0-.55,1.57v19Z"/><path class="cls-1" d="M224.75,41.33a11.07,11.07,0,0,1-4.27-.77,9.43,9.43,0,0,1-3.12-2.08,9,9,0,0,1-1.93-3,9.73,9.73,0,0,1-.65-3.52v-.71a9.56,9.56,0,0,1,.67-3.57,9,9,0,0,1,5.12-5.1,11.82,11.82,0,0,1,8.34,0,9.13,9.13,0,0,1,5.1,5.1,9.56,9.56,0,0,1,.67,3.57V32a9.73,9.73,0,0,1-.65,3.52,9.14,9.14,0,0,1-1.93,3A9.57,9.57,0,0,1,229,40.56,11,11,0,0,1,224.75,41.33Zm0-4a5.22,5.22,0,0,0,2.85-.76,4.89,4.89,0,0,0,1.79-2A6.6,6.6,0,0,0,230,31.6a6.77,6.77,0,0,0-.63-3,5,5,0,0,0-1.82-2.06,5.11,5.11,0,0,0-2.81-.76,5.21,5.21,0,0,0-2.84.76,4.94,4.94,0,0,0-1.83,2.06,6.63,6.63,0,0,0-.64,3,6.74,6.74,0,0,0,.62,2.93,5,5,0,0,0,1.8,2A5.24,5.24,0,0,0,224.75,37.34Z"/><path class="cls-1" d="M238.77,40.69V22.47h3.7v7.72h-.11A9.11,9.11,0,0,1,244,24.26a6.06,6.06,0,0,1,4.94-2h.67v4.06h-1.28a5,5,0,0,0-3.64,1.28,4.92,4.92,0,0,0-1.29,3.66v9.46Z"/><path class="cls-1" d="M250.85,25.89V22.47h12.89v3.42Zm10.27,15a11.18,11.18,0,0,1-4.17-.66,4.48,4.48,0,0,1-2.42-2.21,9.39,9.39,0,0,1-.79-4.22V17.33h4.4l0,16.82a2.53,2.53,0,0,0,2.79,2.78h2.85v4Z"/><path class="cls-1" d="M121.75,70.09V45.32H125V70.09Zm2.62,0v-3h6.1a10,10,0,0,0,3.95-.72,8.68,8.68,0,0,0,3-2,8.48,8.48,0,0,0,1.86-3,10.37,10.37,0,0,0,.64-3.69,10.56,10.56,0,0,0-.64-3.78A8.24,8.24,0,0,0,134.42,49a10.83,10.83,0,0,0-3.95-.67h-6.1v-3h5.77a15,15,0,0,1,5.77,1A11.79,11.79,0,0,1,140,49.09,11.59,11.59,0,0,1,142.42,53a12.15,12.15,0,0,1,.81,4.35V58a12.07,12.07,0,0,1-.81,4.29,11.66,11.66,0,0,1-2.43,3.9,12.18,12.18,0,0,1-4.08,2.8,14.56,14.56,0,0,1-5.77,1.06Z"/><path class="cls-1" d="M146,54.58V52h6v2.55Zm3.65-5.44a2,2,0,1,1,1.6-3.45,2,2,0,0,1-1.6,3.45ZM148.7,70V52h3.22V70Z"/><path class="cls-1" d="M164.94,76.93c-.83,0-1.66,0-2.5-.1s-1.64-.16-2.4-.27V73.84c.81.12,1.65.21,2.54.29s1.71.12,2.5.12a9.66,9.66,0,0,0,3.91-.66,4.1,4.1,0,0,0,2.11-2,8.32,8.32,0,0,0,.65-3.57V64.55L172.83,62a9.67,9.67,0,0,1-1.14,4.51A7,7,0,0,1,169,69.2a7.73,7.73,0,0,1-3.68.89,8.13,8.13,0,0,1-3.44-.73,7.89,7.89,0,0,1-2.68-2,9.08,9.08,0,0,1-1.75-2.94,10.05,10.05,0,0,1-.62-3.51v-.6a9.48,9.48,0,0,1,.64-3.51A8.45,8.45,0,0,1,159.24,54,7.94,7.94,0,0,1,162,52.1a8.89,8.89,0,0,1,3.51-.67,8.06,8.06,0,0,1,4,1,6.85,6.85,0,0,1,2.7,2.79,10.17,10.17,0,0,1,1.09,4.48l-.94,0V52h2.55V67.84a11.82,11.82,0,0,1-1,5.22A6.06,6.06,0,0,1,170.7,76,14.67,14.67,0,0,1,164.94,76.93Zm1-9.8a6.14,6.14,0,0,0,2.94-.7,5.44,5.44,0,0,0,2.12-2,6.16,6.16,0,0,0,.78-3.17V59.68a5.38,5.38,0,0,0-.82-3,5.28,5.28,0,0,0-2.13-1.88,6.34,6.34,0,0,0-2.85-.64,5.89,5.89,0,0,0-3.09.81,5.42,5.42,0,0,0-2.08,2.26,7.58,7.58,0,0,0-.74,3.44,7.44,7.44,0,0,0,.76,3.46,5.37,5.37,0,0,0,2.08,2.26A5.75,5.75,0,0,0,165.91,67.13Z"/><path class="cls-1" d="M178.94,54.58V52h6v2.55Zm3.65-5.44a2,2,0,1,1,1.6-3.45,2,2,0,0,1-1.6,3.45ZM181.69,70V52h3.22V70Z"/><path class="cls-1" d="M188.53,54.45V52h12.35v2.42Zm9.6,15.7a9.52,9.52,0,0,1-3.47-.57,4.35,4.35,0,0,1-2.25-2,7.65,7.65,0,0,1-.79-3.78V46.59h3.09V64.25a2.75,2.75,0,0,0,3,3h3.15v2.88Z"/><path class="cls-1" d="M210.35,70.42a8,8,0,0,1-3.47-.69,5,5,0,0,1-2.25-2,6,6,0,0,1-.79-3.16,5.62,5.62,0,0,1,.85-3.19,5.29,5.29,0,0,1,2.5-1.93,10.88,10.88,0,0,1,4-.65H216v2.42h-5a4.35,4.35,0,0,0-3,.93,3.14,3.14,0,0,0-1,2.42A3,3,0,0,0,208,67a4.4,4.4,0,0,0,3,.91,5.75,5.75,0,0,0,2.18-.42A3.86,3.86,0,0,0,214.93,66a5.11,5.11,0,0,0,.76-2.73l.87,1.27a7.49,7.49,0,0,1-.93,3.21,4.92,4.92,0,0,1-2.08,2A7,7,0,0,1,210.35,70.42Zm5.87-.47V64.58h-.53V58.37a3.71,3.71,0,0,0-1-2.78,3.82,3.82,0,0,0-2.8-.94l-2.15,0-2.12.07c-.67,0-1.25,0-1.74.1V52l1.56-.12,1.69-.07h1.68a13.15,13.15,0,0,1,4.5.65,4.82,4.82,0,0,1,2.58,2.13,8.12,8.12,0,0,1,.84,4V70Z"/><path class="cls-1" d="M222.4,48V45.45h5.7V48Zm2.48,22V45.45h3.22V70Z"/><path class="cls-1" d="M240.15,70.49A8.62,8.62,0,0,1,234.7,69a5.13,5.13,0,0,1-2-4.13h3a2.93,2.93,0,0,0,1.06,2,4.87,4.87,0,0,0,3.37.93,5.42,5.42,0,0,0,3.29-.86,2.55,2.55,0,0,0,1.14-2.1,2,2,0,0,0-.84-1.72,5.7,5.7,0,0,0-2.72-.83l-1.94-.2a8,8,0,0,1-4.17-1.53A4.25,4.25,0,0,1,233.3,57a4.84,4.84,0,0,1,.88-2.93,5.44,5.44,0,0,1,2.41-1.88,9,9,0,0,1,3.56-.66,8.28,8.28,0,0,1,4.9,1.34,4.79,4.79,0,0,1,1.95,4h-3A2.34,2.34,0,0,0,243,55a5.62,5.62,0,0,0-5.68,0,2.37,2.37,0,0,0-1,1.94,2,2,0,0,0,.69,1.61,4.13,4.13,0,0,0,2.27.78l1.94.2a9.32,9.32,0,0,1,4.64,1.59,4.27,4.27,0,0,1,1.74,3.64,4.84,4.84,0,0,1-1,3,6.22,6.22,0,0,1-2.63,2A9.73,9.73,0,0,1,240.15,70.49Z"/></svg>